<?xml version="1.0" encoding="UTF-8" standalone="no"?>
<!-- Created with Inkscape (http://www.inkscape.org/) -->

<svg
   width="242.45171"
   height="49.092434"
   viewBox="0 0 64.14868 12.989048"
   version="1.1"
   id="svg1"
   xml:space="preserve"
   xmlns="http://www.w3.org/2000/svg"
   xmlns:svg="http://www.w3.org/2000/svg"><defs
     id="defs1" /><g
     id="layer1"
     transform="translate(-0.80940211,-0.58607637)"><g
       id="g6"><path
         d="m 9.536149,11.353721 -0.127556,-0.07087 c -0.722816,0.935414 -1.4739795,1.431466 -2.6928484,1.431466 -1.7857844,0 -4.1951753,-1.445637 -4.1951753,-5.2014545 0,-1.9842018 1.2613865,-3.1605532 2.5369464,-3.1605532 2.0975887,0 2.7920596,1.0913134 3.217247,2.2960098 L 8.969234,5.2877197 9.281038,4.6641123 l -0.05669,0.01416 c -0.155902,0.05669 -0.311803,0.08504 -0.481879,0.08504 -0.255112,0 -0.5102228,-0.05669 -0.7369901,-0.1842327 -0.5810878,-0.3259883 -1.3039048,-0.524408 -2.2534891,-0.524408 -2.7778862,0 -4.7337457,1.6440501 -4.7337457,4.5494943 0,2.5511201 1.8424764,4.6628801 4.6203626,4.6628801 2.2393167,0 3.2455923,-0.963758 3.8975443,-1.91334 z m 5.499096,-7.3132104 c -2.636157,0 -4.790437,2.0692398 -4.790437,4.6203643 0,2.5511181 2.15428,4.6061871 4.790437,4.6061871 2.65033,0 4.790437,-2.055068 4.790437,-4.6061871 0,-2.5511245 -2.140107,-4.6203643 -4.790437,-4.6203643 z m 0.01418,8.9997864 c -1.658228,0 -3.004652,-1.955862 -3.004652,-4.3794221 0,-2.4235655 1.346424,-4.3935996 3.004652,-4.3935996 1.658227,0 3.004653,1.9700341 3.004653,4.3935996 0,2.4235601 -1.346426,4.3794221 -3.004653,4.3794221 z m 15.802778,0.226765 c -0.311811,-0.127555 -0.552748,-0.325975 -0.722825,-0.58109 -0.170071,-0.255111 -0.269282,-0.566913 -0.269282,-0.878716 V 8.2640322 c 0,-1.6440571 -0.19842,-4.2093496 -3.302285,-4.2093496 -1.658227,0 -2.933788,0.9212364 -3.472357,2.3385255 V 4.1822383 l -2.763716,1.0629684 c 0.552744,0 0.992103,0.439358 0.992103,0.9921027 V 11.79308 c 0,0.651955 -0.382669,1.233045 -0.992103,1.473982 h 3.755815 C 23.779922,13.139507 23.524812,12.941087 23.354736,12.685972 23.184664,12.430861 23.085454,12.119059 23.085454,11.79308 V 7.5695605 c 0,-0.9070644 0.368493,-1.7999581 1.077137,-2.3810475 0.425186,-0.35432 0.907065,-0.5669127 1.374772,-0.5669127 2.310182,0 2.55112,1.8991638 2.55112,4.0817916 V 11.79308 c 0,0.651955 -0.396842,1.233045 -0.992103,1.473982 z m 6.023484,-0.55274 c -1.403117,0 -3.217247,-0.907066 -3.897547,-3.1747317 l 5.329008,-1.5590161 1.686571,-0.4960517 c -0.01416,-0.07087 -0.02834,-0.127554 -0.05669,-0.1984197 C 39.766947,6.6766681 39.483488,6.0247124 39.04413,5.4719717 38.406351,4.6782893 37.414248,4.0688556 35.897749,4.0546826 h -0.05669 c -2.735367,0.02834 -4.648704,1.6724031 -4.648704,4.5494983 0,0.170077 0,0.3401477 0.01416,0.4960517 0.01416,0.07087 0.01416,0.141727 0.02834,0.226765 0.02834,0.1559037 0.05669,0.3259757 0.09921,0.4818797 0.01416,0.07087 0.02834,0.141726 0.04252,0.1984207 0.552745,1.87082 2.182627,3.259764 4.436115,3.259764 2.239316,0 3.231419,-0.963758 3.897546,-1.913341 l -0.14173,-0.07087 c -0.708645,0.935414 -1.459806,1.431466 -2.692847,1.431466 z M 32.907274,9.3269976 c -0.09921,-0.35432 -0.184244,-0.8787207 -0.184244,-1.4739791 0,-1.3747714 0.439359,-3.0613465 1.984202,-3.4156672 0.198421,-0.04252 0.382669,-0.05669 0.552745,-0.05669 1.799955,0 2.80623,2.0975888 3.018826,3.3873242 L 32.92145,9.3411736 Z M 48.199807,5.216858 C 48.653337,4.72081 49.206082,4.3239683 49.815516,4.0546826 H 47.78879 c 0.240937,0.113385 0.368492,0.3684967 0.368492,0.6094337 0,0.1700767 -0.05669,0.3401477 -0.184248,0.4677067 L 45.351053,7.9522292 43.295981,5.188513 c -0.09921,-0.141728 -0.1559,-0.297631 -0.1559,-0.453531 0,-0.2692857 0.1559,-0.5385717 0.411014,-0.6802994 h -3.812509 c 0.496051,0.2692857 0.93541,0.6519517 1.275562,1.1196584 l 3.089687,4.1384846 -2.508602,2.7070234 c -0.510223,0.55274 -1.13383,0.977926 -1.828302,1.247213 h 2.026723 c -0.198421,-0.127555 -0.29763,-0.340148 -0.29763,-0.55274 0,-0.155904 0.05669,-0.311808 0.170075,-0.439363 l 2.579468,-2.7778847 1.984202,2.6645017 c 0.09921,0.141728 0.155904,0.297631 0.155904,0.467707 0,0.25511 -0.141732,0.510224 -0.382669,0.637779 h 3.812509 c -0.538572,-0.269287 -1.006276,-0.666127 -1.374772,-1.162176 l -2.94796,-3.9684128 z m 3.174723,6.632915 c 0,0.623605 -0.368497,1.190524 -0.949584,1.417289 h 3.614085 c -0.283458,-0.113384 -0.5244,-0.311804 -0.694472,-0.566919 -0.170075,-0.240936 -0.269286,-0.538568 -0.269286,-0.85037 V 4.5223903 l -2.65033,1.0062754 c 0.524397,0 0.949583,0.4393577 0.949583,0.9637534 z m 1.884995,-9.8926792 c 0,-0.6377787 -0.524396,-1.16217537 -1.16218,-1.16217537 -0.637778,0 -1.162174,0.52439667 -1.162174,1.16217537 0,0.6377824 0.524396,1.1621794 1.162174,1.1621794 0.637784,0 1.16218,-0.524397 1.16218,-1.1621794 z M 64.881306,13.267062 C 64.271867,13.026125 63.889194,12.430861 63.889194,11.778907 V 8.1364732 c 0,-2.9763052 -1.743264,-4.0817906 -4.266034,-4.0817906 -1.374773,0 -2.182624,0.3684967 -3.033,0.9070644 -0.113384,0.07087 -0.255109,0.113384 -0.382669,0.113384 -0.155899,0 -0.311803,-0.05669 -0.425185,-0.170075 v 2.4802585 c 0.04252,-0.1700767 1.190523,-3.0471722 3.840854,-3.0471722 1.247212,0 2.480257,0.9212384 2.480257,2.8912685 v 0.1559037 h -0.184248 c -1.516499,0 -7.086447,0.212592 -7.086447,3.4723565 0,2.508602 3.160555,2.508602 3.940065,2.508602 1.672399,0 2.763713,-0.510224 3.33063,-1.374773 v 1.275562 z m -5.626644,-0.09921 c -1.388936,0 -2.508598,-0.694472 -2.508598,-2.225143 0,-3.0329998 4.563671,-3.3164585 5.357352,-3.3306305 v 3.8125085 c 0,0.807855 -1.45981,1.743265 -2.848754,1.743265 z"
         id="text1"
         style="font-size:35.9114px;line-height:1;font-family:Aurora;-inkscape-font-specification:'Aurora, Normal';letter-spacing:0px;fill:#23419e;fill-opacity:1;stroke:#23419e;stroke-width:0.417684;stroke-opacity:1;paint-order:markers stroke fill"
         aria-label="conexia" /><path
         style="baseline-shift:baseline;display:inline;overflow:visible;vector-effect:none;fill:#ff6600;stroke:#ff6600;stroke-width:0.0761802;paint-order:markers stroke fill;enable-background:accumulate;stop-color:#000000"
         d="m 15.120723,6.0283915 c -0.482709,0 -0.957887,0.394555 -0.957887,0.877263 v 0.957162 c 0.156388,0.147612 0.268392,0.116666 0.380901,0 v -0.957162 c 0,-0.278277 0.298708,-0.496362 0.576986,-0.496362 0.278278,0 0.496361,0.218085 0.496361,0.496362 v 1.333005 c 0,0.293937 -0.08884,0.431969 -0.296983,0.47568 -0.06493,0.201954 0.04498,0.321367 0.196401,0.326443 0.358392,-0.09976 0.481483,-0.484274 0.481483,-0.802123 v -1.333005 c 0,-0.482708 -0.394554,-0.877263 -0.877262,-0.877263 z"
         id="rect4" /><path
         style="baseline-shift:baseline;display:inline;overflow:visible;vector-effect:none;fill:#ff6600;stroke:#ff6600;paint-order:markers stroke fill;enable-background:accumulate;stop-color:#000000"
         d="m 96.444197,-70.285321 c 6.336413,0 12.573963,-5.17923 12.573963,-11.51563 v -12.56445 c -2.05287,-1.93766 -3.52312,-1.53145 -5,0 v 12.56445 c 0,3.65288 -3.92107,6.51563 -7.573963,6.51563 -3.652899,0 -6.515629,-2.86275 -6.515629,-6.51563 v -19.619369 c 0,-5.71459 3.704273,-6.4269 7.474679,-6.10691 1.475624,0.12523 1.408358,-3.82033 -0.05905,-4.01997 -7.721845,-1.05057 -12.256163,2.64081 -12.283044,7.21006 l -0.132583,22.536189 c -0.03728,6.33629 5.17922,11.51563 11.515629,11.51563 z"
         id="path7"
         transform="matrix(0.0761802,0,0,0.0761802,7.7273562,16.622069)" /><g
         id="g9"
         transform="matrix(0.07414303,0,0,0.09533736,12.809775,2.427326)"
         style="fill:#ff6600;stroke:#ff6600"><rect
           style="fill:#ff6600;stroke:#ff6600;stroke-width:3.25733;stroke-dasharray:none;stroke-opacity:1;paint-order:markers stroke fill"
           id="rect7"
           width="8.9021111"
           height="0.81457716"
           x="16.295315"
           y="74.889641"
           ry="0.40728858"
           transform="rotate(-26.768934)" /><rect
           style="fill:#ff6600;stroke:#ff6600;stroke-width:3.42695;stroke-dasharray:none;stroke-opacity:1;paint-order:markers stroke fill"
           id="rect8"
           width="12.444799"
           height="0.64495552"
           x="48.666759"
           y="65.372169"
           ry="0.32247776" /><rect
           style="fill:#ff6600;stroke:#ff6600;stroke-width:3.25733;stroke-dasharray:none;stroke-opacity:1;paint-order:markers stroke fill"
           id="rect9"
           width="8.9021111"
           height="0.81457716"
           x="72.220093"
           y="47.098942"
           ry="0.40728858"
           transform="rotate(22.537)" /></g><g
         id="g12"
         transform="matrix(-0.07414303,0,0,0.09533736,17.408847,2.427326)"
         style="fill:#ff6600;stroke:#ff6600"><rect
           style="fill:#ff6600;stroke:#ff6600;stroke-width:3.25733;stroke-dasharray:none;stroke-opacity:1;paint-order:markers stroke fill"
           id="rect10"
           width="8.9021111"
           height="0.81457716"
           x="16.295315"
           y="74.889641"
           ry="0.40728858"
           transform="rotate(-26.768934)" /><rect
           style="fill:#ff6600;stroke:#ff6600;stroke-width:3.42695;stroke-dasharray:none;stroke-opacity:1;paint-order:markers stroke fill"
           id="rect11"
           width="12.444799"
           height="0.64495552"
           x="48.666759"
           y="65.372169"
           ry="0.32247776" /><rect
           style="fill:#ff6600;stroke:#ff6600;stroke-width:3.25733;stroke-dasharray:none;stroke-opacity:1;paint-order:markers stroke fill"
           id="rect12"
           width="8.9021111"
           height="0.81457716"
           x="72.220093"
           y="47.098942"
           ry="0.40728858"
           transform="rotate(22.537)" /></g><path
         style="fill:none;stroke:#0000ff;stroke-width:0.2;stroke-dasharray:none;stroke-opacity:1;paint-order:markers stroke fill"
         d="m 43.63128,4.0116722 c 1.268902,-0.1605022 1.667918,-0.6326167 1.487226,0.7396067 -0.16407,1.2459894 2.208341,0.8709193 2.328622,0.774844"
         id="path3"
         transform="matrix(0.99859596,0.1715525,-0.1715525,0.99859596,0.61024702,-7.5359954)" /></g></g></svg>
